<?xml version="1.0" encoding="UTF-8"?>
<!DOCTYPE svg PUBLIC "-//W3C//DTD SVG 1.1//EN" "http://www.w3.org/Graphics/SVG/1.1/DTD/svg11.dtd">
<svg xmlns="http://www.w3.org/2000/svg" version="1.1" width="512px" height="512px" style="shape-rendering:geometricPrecision; text-rendering:geometricPrecision; image-rendering:optimizeQuality; fill-rule:evenodd; clip-rule:evenodd" xmlns:xlink="http://www.w3.org/1999/xlink">
<g><path style="opacity:1" fill="#f5f5e6" d="M 250.5,-0.5 C 259.833,-0.5 269.167,-0.5 278.5,-0.5C 281.725,0.236789 285.059,0.903456 288.5,1.5C 291.946,2.6874 295.613,3.35407 299.5,3.5C 299.5,33.5 299.5,63.5 299.5,93.5C 270.479,85.6496 241.479,85.6496 212.5,93.5C 211.5,63.174 211.167,32.8407 211.5,2.5C 215.466,1.83787 219.466,1.50454 223.5,1.5C 232.679,1.21729 241.679,0.550623 250.5,-0.5 Z"/></g>
<g><path style="opacity:1" fill="#f0b6b7" d="M 232.5,-0.5 C 238.5,-0.5 244.5,-0.5 250.5,-0.5C 241.679,0.550623 232.679,1.21729 223.5,1.5C 226.5,0.833333 229.5,0.166667 232.5,-0.5 Z"/></g>
<g><path style="opacity:0.694" fill="#ee99a5" d="M 288.5,1.5 C 292.198,1.55241 295.865,1.88575 299.5,2.5C 299.5,2.83333 299.5,3.16667 299.5,3.5C 295.613,3.35407 291.946,2.6874 288.5,1.5 Z"/></g>
<g><path style="opacity:0.998" fill="#dd1e4b" d="M 211.5,2.5 C 211.167,32.8407 211.5,63.174 212.5,93.5C 241.479,85.6496 270.479,85.6496 299.5,93.5C 299.5,63.5 299.5,33.5 299.5,3.5C 299.5,3.16667 299.5,2.83333 299.5,2.5C 361.385,13.9265 412.385,43.5931 452.5,91.5C 426.363,106.403 400.363,121.569 374.5,137C 395.539,158.225 410.039,183.392 418,212.5C 442.922,197.621 468.088,183.121 493.5,169C 494.823,168.184 495.489,167.017 495.5,165.5C 501.866,181.955 506.532,198.955 509.5,216.5C 509.872,253.16 503.705,288.827 491,323.5C 489.287,328.192 487.12,332.525 484.5,336.5C 462.144,324.236 439.977,311.57 418,298.5C 409.417,327.346 394.917,352.68 374.5,374.5C 393.994,386.415 413.66,398.082 433.5,409.5C 416.401,428.253 396.401,443.253 373.5,454.5C 379.065,447.067 379.899,439.067 376,430.5C 366.23,421.283 356.564,421.283 347,430.5C 340.883,442.861 344.049,452.028 356.5,458C 359.482,458.498 362.482,458.665 365.5,458.5C 344.698,469.212 322.698,476.545 299.5,480.5C 299.5,459.5 299.5,438.5 299.5,417.5C 270.482,425.328 241.482,425.328 212.5,417.5C 211.5,438.823 211.167,460.156 211.5,481.5C 171.094,475.203 134.428,460.036 101.5,436C 91.3812,428.713 82.0478,420.547 73.5,411.5C 94.4367,399.026 115.437,386.526 136.5,374C 115.961,352.437 101.461,327.27 93,298.5C 69.2613,312.422 45.428,326.089 21.5,339.5C 11.5186,316.894 4.18523,293.561 -0.5,269.5C -0.5,257.167 -0.5,244.833 -0.5,232.5C 1.83916,209.476 7.1725,187.142 15.5,165.5C 15.5106,167.017 16.1772,168.184 17.5,169C 42.6667,183.5 67.8333,198 93,212.5C 101.082,183.316 115.582,157.983 136.5,136.5C 111.09,120.462 85.0905,105.462 58.5,91.5C 98.6386,43.5832 149.639,13.9166 211.5,2.5 Z"/></g>
<g><path style="opacity:1" fill="#f5f3e5" d="M 144.5,52.5 C 161.491,51.9814 168.658,59.9814 166,76.5C 161.711,85.7103 154.544,89.2103 144.5,87C 134.021,82.6195 130.188,74.7862 133,63.5C 135.495,58.353 139.329,54.6863 144.5,52.5 Z"/></g>
<g><path style="opacity:1" fill="#f5f3e5" d="M 356.5,52.5 C 374.591,52.3626 381.424,61.0293 377,78.5C 371.069,86.81 363.235,89.31 353.5,86C 341.674,77.0516 340.674,67.0516 350.5,56C 352.727,55.059 354.727,53.8923 356.5,52.5 Z"/></g>
<g><path style="opacity:1" fill="#f5f4e5" d="M 58.5,91.5 C 85.0905,105.462 111.09,120.462 136.5,136.5C 115.582,157.983 101.082,183.316 93,212.5C 67.8333,198 42.6667,183.5 17.5,169C 16.1772,168.184 15.5106,167.017 15.5,165.5C 19.0208,154.586 23.6875,144.252 29.5,134.5C 30.9063,134.027 31.573,133.027 31.5,131.5C 38.9413,117.069 47.9413,103.735 58.5,91.5 Z"/></g>
<g><path style="opacity:1" fill="#f5f4e5" d="M 452.5,91.5 C 471.415,113.305 485.748,137.972 495.5,165.5C 495.489,167.017 494.823,168.184 493.5,169C 468.088,183.121 442.922,197.621 418,212.5C 410.039,183.392 395.539,158.225 374.5,137C 400.363,121.569 426.363,106.403 452.5,91.5 Z"/></g>
<g><path style="opacity:1" fill="#f5f3e5" d="M 239.5,114.5 C 301.538,110.929 348.371,135.596 380,188.5C 400.982,230.664 401.982,273.331 383,316.5C 358.562,363.915 319.728,390.415 266.5,396C 214.419,398.872 172.586,379.705 141,338.5C 117.691,304.543 109.691,267.21 117,226.5C 134.195,163.132 175.028,125.799 239.5,114.5 Z"/></g>
<g><path style="opacity:1" fill="#dd1d4b" d="M 244.5,131.5 C 299.734,130.186 340.568,153.519 367,201.5C 385.863,244.933 382.53,286.599 357,326.5C 325.246,367.982 283.412,384.815 231.5,377C 187.634,366.979 157.134,341.146 140,299.5C 122.404,245.129 134.57,198.629 176.5,160C 196.542,144.155 219.208,134.655 244.5,131.5 Z"/></g>
<g><path style="opacity:0.592" fill="#e58490" d="M 31.5,131.5 C 31.573,133.027 30.9063,134.027 29.5,134.5C 29.427,132.973 30.0937,131.973 31.5,131.5 Z"/></g>
<g><path style="opacity:1" fill="#b51e48" d="M 509.5,216.5 C 509.668,222.034 510.335,227.367 511.5,232.5C 511.5,247.833 511.5,263.167 511.5,278.5C 509.161,301.525 503.827,323.859 495.5,345.5C 495.489,343.983 494.823,342.816 493.5,342C 490.102,340.643 487.102,338.81 484.5,336.5C 487.12,332.525 489.287,328.192 491,323.5C 503.705,288.827 509.872,253.16 509.5,216.5 Z"/></g>
<g><path style="opacity:1" fill="#f5f2e4" d="M 39.5,237.5 C 53.8769,237.378 61.0435,244.378 61,258.5C 57.8396,269.17 50.673,274.003 39.5,273C 26.945,267.339 23.445,258.173 29,245.5C 31.94,241.963 35.44,239.297 39.5,237.5 Z"/></g>
<g><path style="opacity:1" fill="#f5f3e5" d="M 460.5,238.5 C 479.17,236.997 486.67,245.33 483,263.5C 477.771,272.021 470.271,274.855 460.5,272C 445.874,260.799 445.874,249.633 460.5,238.5 Z"/></g>
<g><path style="opacity:1" fill="#b81e49" d="M -0.5,269.5 C 4.18523,293.561 11.5186,316.894 21.5,339.5C 20.3998,340.558 19.0664,341.392 17.5,342C 16.1772,342.816 15.5106,343.983 15.5,345.5C 7.17278,323.859 1.83944,301.525 -0.5,278.5C -0.5,275.5 -0.5,272.5 -0.5,269.5 Z"/></g>
<g><path style="opacity:1" fill="#f5f4e5" d="M 73.5,411.5 C 68.3682,413.9 63.3682,416.566 58.5,419.5C 39.5854,397.695 25.2521,373.028 15.5,345.5C 15.5106,343.983 16.1772,342.816 17.5,342C 19.0664,341.392 20.3998,340.558 21.5,339.5C 45.428,326.089 69.2613,312.422 93,298.5C 101.461,327.27 115.961,352.437 136.5,374C 115.437,386.526 94.4367,399.026 73.5,411.5 Z"/></g>
<g><path style="opacity:1" fill="#f5f4e5" d="M 484.5,336.5 C 487.102,338.81 490.102,340.643 493.5,342C 494.823,342.816 495.489,343.983 495.5,345.5C 485.748,373.028 471.415,397.695 452.5,419.5C 446.036,416.434 439.702,413.101 433.5,409.5C 413.66,398.082 393.994,386.415 374.5,374.5C 394.917,352.68 409.417,327.346 418,298.5C 439.977,311.57 462.144,324.236 484.5,336.5 Z"/></g>
<g><path style="opacity:1" fill="#b41d48" d="M 433.5,409.5 C 439.702,413.101 446.036,416.434 452.5,419.5C 411.651,468.27 359.651,497.937 296.5,508.5C 297.209,507.596 298.209,507.263 299.5,507.5C 299.5,498.5 299.5,489.5 299.5,480.5C 322.698,476.545 344.698,469.212 365.5,458.5C 368.128,457.186 370.795,455.853 373.5,454.5C 396.401,443.253 416.401,428.253 433.5,409.5 Z"/></g>
<g><path style="opacity:1" fill="#b31d48" d="M 73.5,411.5 C 82.0478,420.547 91.3812,428.713 101.5,436C 134.428,460.036 171.094,475.203 211.5,481.5C 211.5,490.5 211.5,499.5 211.5,508.5C 149.639,497.083 98.6386,467.417 58.5,419.5C 63.3682,416.566 68.3682,413.9 73.5,411.5 Z"/></g>
<g><path style="opacity:1" fill="#f5f5e6" d="M 299.5,480.5 C 299.5,489.5 299.5,498.5 299.5,507.5C 298.209,507.263 297.209,507.596 296.5,508.5C 290.404,509.505 284.404,510.505 278.5,511.5C 266.167,511.5 253.833,511.5 241.5,511.5C 235.726,510.054 229.726,509.388 223.5,509.5C 219.466,509.495 215.466,509.162 211.5,508.5C 211.5,499.5 211.5,490.5 211.5,481.5C 211.167,460.156 211.5,438.823 212.5,417.5C 241.482,425.328 270.482,425.328 299.5,417.5C 299.5,438.5 299.5,459.5 299.5,480.5 Z"/></g>
<g><path style="opacity:1" fill="#f5f3e4" d="M 143.5,423.5 C 162.34,422.823 169.507,431.489 165,449.5C 160.097,456.778 153.264,459.611 144.5,458C 132.413,452.078 129.247,442.911 135,430.5C 137.628,427.79 140.461,425.456 143.5,423.5 Z"/></g>
<g><path style="opacity:1" fill="#f5f3e4" d="M 373.5,454.5 C 370.795,455.853 368.128,457.186 365.5,458.5C 362.482,458.665 359.482,458.498 356.5,458C 344.049,452.028 340.883,442.861 347,430.5C 356.564,421.283 366.23,421.283 376,430.5C 379.899,439.067 379.065,447.067 373.5,454.5 Z"/></g>
<g><path style="opacity:0.867" fill="#e99da7" d="M 223.5,509.5 C 229.726,509.388 235.726,510.054 241.5,511.5C 238.5,511.5 235.5,511.5 232.5,511.5C 229.5,510.833 226.5,510.167 223.5,509.5 Z"/></g>
</svg>
